<mxfile host="Electron" modified="2024-01-10T11:16:16.920Z" agent="Mozilla/5.0 (Macintosh; Intel Mac OS X 10_15_7) AppleWebKit/537.36 (KHTML, like Gecko) draw.io/22.1.16 Chrome/120.0.6099.109 Electron/28.1.0 Safari/537.36" etag="YQFzE1qct6RIUW_fTUST" version="22.1.16" type="device">
  <diagram name="Page-1" id="HLI1Fp5mB5NM6HHk9dvi">
    <mxGraphModel dx="2012" dy="1214" grid="1" gridSize="10" guides="1" tooltips="1" connect="1" arrows="1" fold="1" page="1" pageScale="1" pageWidth="2200" pageHeight="1600" math="0" shadow="0">
      <root>
        <mxCell id="0" />
        <mxCell id="1" parent="0" />
        <mxCell id="fdBVsnbzCqG6GmwkJjC0-2" value="Lopenling sign in, sign up &amp;amp; forgot password flow" style="text;strokeColor=none;fillColor=none;html=1;fontSize=24;fontStyle=1;verticalAlign=middle;align=left;" parent="1" vertex="1">
          <mxGeometry x="80" y="80" width="800" height="40" as="geometry" />
        </mxCell>
        <mxCell id="fdBVsnbzCqG6GmwkJjC0-90" style="edgeStyle=orthogonalEdgeStyle;shape=connector;rounded=0;jumpStyle=arc;jumpSize=20;orthogonalLoop=1;jettySize=auto;html=1;labelBackgroundColor=default;strokeColor=default;align=center;verticalAlign=middle;fontFamily=Helvetica;fontSize=12;fontColor=default;endArrow=classic;" parent="1" source="fdBVsnbzCqG6GmwkJjC0-5" target="fdBVsnbzCqG6GmwkJjC0-18" edge="1">
          <mxGeometry relative="1" as="geometry" />
        </mxCell>
        <mxCell id="fdBVsnbzCqG6GmwkJjC0-5" value="Login page" style="rounded=1;whiteSpace=wrap;html=1;shape=document;boundedLbl=1;fillColor=#ffe6cc;strokeColor=#d79b00;" parent="1" vertex="1">
          <mxGeometry x="80" y="240" width="120" height="80" as="geometry" />
        </mxCell>
        <mxCell id="fdBVsnbzCqG6GmwkJjC0-96" value="Yes" style="edgeStyle=orthogonalEdgeStyle;shape=connector;rounded=0;jumpStyle=arc;jumpSize=20;orthogonalLoop=1;jettySize=auto;html=1;exitX=0.5;exitY=1;exitDx=0;exitDy=0;labelBackgroundColor=default;strokeColor=default;align=center;verticalAlign=middle;fontFamily=Helvetica;fontSize=12;fontColor=default;endArrow=classic;" parent="1" source="fdBVsnbzCqG6GmwkJjC0-8" target="fdBVsnbzCqG6GmwkJjC0-10" edge="1">
          <mxGeometry relative="1" as="geometry" />
        </mxCell>
        <mxCell id="fdBVsnbzCqG6GmwkJjC0-141" style="edgeStyle=orthogonalEdgeStyle;shape=connector;rounded=0;jumpStyle=arc;jumpSize=20;orthogonalLoop=1;jettySize=auto;html=1;entryX=0;entryY=0.5;entryDx=0;entryDy=0;labelBackgroundColor=default;strokeColor=default;align=center;verticalAlign=middle;fontFamily=Helvetica;fontSize=12;fontColor=default;endArrow=classic;" parent="1" source="fdBVsnbzCqG6GmwkJjC0-8" target="fdBVsnbzCqG6GmwkJjC0-140" edge="1">
          <mxGeometry relative="1" as="geometry" />
        </mxCell>
        <mxCell id="fdBVsnbzCqG6GmwkJjC0-142" value="No" style="edgeLabel;html=1;align=center;verticalAlign=middle;resizable=0;points=[];fontSize=12;fontFamily=Helvetica;fontColor=default;" parent="fdBVsnbzCqG6GmwkJjC0-141" vertex="1" connectable="0">
          <mxGeometry x="0.0237" relative="1" as="geometry">
            <mxPoint x="-62" as="offset" />
          </mxGeometry>
        </mxCell>
        <mxCell id="fdBVsnbzCqG6GmwkJjC0-8" value="New e-mail &lt;br&gt;address?" style="rhombus;whiteSpace=wrap;html=1;rounded=0;" parent="1" vertex="1">
          <mxGeometry x="480" y="240" width="120" height="80" as="geometry" />
        </mxCell>
        <mxCell id="fdBVsnbzCqG6GmwkJjC0-130" style="edgeStyle=orthogonalEdgeStyle;shape=connector;rounded=0;jumpStyle=arc;jumpSize=20;orthogonalLoop=1;jettySize=auto;html=1;labelBackgroundColor=default;strokeColor=default;align=center;verticalAlign=middle;fontFamily=Helvetica;fontSize=12;fontColor=default;endArrow=classic;" parent="1" source="fdBVsnbzCqG6GmwkJjC0-262" target="fdBVsnbzCqG6GmwkJjC0-53" edge="1">
          <mxGeometry relative="1" as="geometry" />
        </mxCell>
        <mxCell id="fdBVsnbzCqG6GmwkJjC0-133" style="edgeStyle=orthogonalEdgeStyle;shape=connector;rounded=0;jumpStyle=none;jumpSize=20;orthogonalLoop=1;jettySize=auto;html=1;entryX=0.5;entryY=0;entryDx=0;entryDy=0;labelBackgroundColor=default;strokeColor=default;align=center;verticalAlign=middle;fontFamily=Helvetica;fontSize=12;fontColor=default;endArrow=classic;" parent="1" source="fdBVsnbzCqG6GmwkJjC0-262" target="fdBVsnbzCqG6GmwkJjC0-41" edge="1">
          <mxGeometry relative="1" as="geometry" />
        </mxCell>
        <mxCell id="fdBVsnbzCqG6GmwkJjC0-134" style="edgeStyle=orthogonalEdgeStyle;shape=connector;rounded=0;jumpStyle=arc;jumpSize=20;orthogonalLoop=1;jettySize=auto;html=1;entryX=0.5;entryY=0;entryDx=0;entryDy=0;labelBackgroundColor=default;strokeColor=default;align=center;verticalAlign=middle;fontFamily=Helvetica;fontSize=12;fontColor=default;endArrow=classic;" parent="1" source="fdBVsnbzCqG6GmwkJjC0-262" target="fdBVsnbzCqG6GmwkJjC0-128" edge="1">
          <mxGeometry relative="1" as="geometry" />
        </mxCell>
        <mxCell id="fdBVsnbzCqG6GmwkJjC0-10" value="New account&lt;br&gt;page" style="whiteSpace=wrap;html=1;rounded=1;shape=document;boundedLbl=1;fillColor=#ffe6cc;strokeColor=#d79b00;" parent="1" vertex="1">
          <mxGeometry x="480" y="400" width="120" height="80" as="geometry" />
        </mxCell>
        <mxCell id="fdBVsnbzCqG6GmwkJjC0-91" style="edgeStyle=orthogonalEdgeStyle;shape=connector;rounded=0;jumpStyle=arc;jumpSize=20;orthogonalLoop=1;jettySize=auto;html=1;labelBackgroundColor=default;strokeColor=default;align=center;verticalAlign=middle;fontFamily=Helvetica;fontSize=12;fontColor=default;endArrow=classic;" parent="1" source="fdBVsnbzCqG6GmwkJjC0-18" target="fdBVsnbzCqG6GmwkJjC0-8" edge="1">
          <mxGeometry relative="1" as="geometry" />
        </mxCell>
        <mxCell id="fdBVsnbzCqG6GmwkJjC0-18" value="Enter email and continue" style="rounded=0;whiteSpace=wrap;html=1;spacing=6;" parent="1" vertex="1">
          <mxGeometry x="280" y="240" width="120" height="80" as="geometry" />
        </mxCell>
        <mxCell id="fdBVsnbzCqG6GmwkJjC0-252" style="edgeStyle=orthogonalEdgeStyle;shape=connector;rounded=0;jumpStyle=none;jumpSize=20;orthogonalLoop=1;jettySize=auto;html=1;exitX=0.5;exitY=1;exitDx=0;exitDy=0;labelBackgroundColor=default;strokeColor=default;align=center;verticalAlign=middle;fontFamily=Helvetica;fontSize=12;fontColor=default;endArrow=none;endFill=0;" parent="1" source="fdBVsnbzCqG6GmwkJjC0-41" target="fdBVsnbzCqG6GmwkJjC0-251" edge="1">
          <mxGeometry relative="1" as="geometry" />
        </mxCell>
        <mxCell id="fdBVsnbzCqG6GmwkJjC0-41" value="Click&lt;br style=&quot;border-color: var(--border-color);&quot;&gt;&quot;Use magic link only&quot;" style="rounded=0;whiteSpace=wrap;html=1;spacing=6;" parent="1" vertex="1">
          <mxGeometry x="640" y="560" width="120" height="80" as="geometry" />
        </mxCell>
        <mxCell id="fdBVsnbzCqG6GmwkJjC0-143" style="edgeStyle=orthogonalEdgeStyle;shape=connector;rounded=0;jumpStyle=arc;jumpSize=20;orthogonalLoop=1;jettySize=auto;html=1;entryX=0.5;entryY=0;entryDx=0;entryDy=0;labelBackgroundColor=default;strokeColor=default;align=center;verticalAlign=middle;fontFamily=Helvetica;fontSize=12;fontColor=default;endArrow=classic;" parent="1" source="fdBVsnbzCqG6GmwkJjC0-53" target="fdBVsnbzCqG6GmwkJjC0-136" edge="1">
          <mxGeometry relative="1" as="geometry" />
        </mxCell>
        <mxCell id="fdBVsnbzCqG6GmwkJjC0-53" value="Click&lt;br style=&quot;border-color: var(--border-color);&quot;&gt;&quot;Add password&quot;" style="rounded=0;whiteSpace=wrap;html=1;spacing=6;" parent="1" vertex="1">
          <mxGeometry x="480" y="560" width="120" height="80" as="geometry" />
        </mxCell>
        <mxCell id="fdBVsnbzCqG6GmwkJjC0-275" style="edgeStyle=orthogonalEdgeStyle;shape=connector;rounded=0;jumpStyle=none;jumpSize=20;orthogonalLoop=1;jettySize=auto;html=1;exitX=0.5;exitY=1;exitDx=0;exitDy=0;labelBackgroundColor=default;strokeColor=default;align=center;verticalAlign=middle;fontFamily=Helvetica;fontSize=12;fontColor=default;endArrow=none;endFill=0;" parent="1" source="fdBVsnbzCqG6GmwkJjC0-128" target="fdBVsnbzCqG6GmwkJjC0-157" edge="1">
          <mxGeometry relative="1" as="geometry">
            <Array as="points">
              <mxPoint x="380" y="660" />
            </Array>
          </mxGeometry>
        </mxCell>
        <mxCell id="fdBVsnbzCqG6GmwkJjC0-128" value="Click&lt;br&gt;&quot;Go back a step&quot;" style="rounded=0;whiteSpace=wrap;html=1;spacing=6;" parent="1" vertex="1">
          <mxGeometry x="320" y="560" width="120" height="80" as="geometry" />
        </mxCell>
        <mxCell id="fdBVsnbzCqG6GmwkJjC0-169" style="edgeStyle=orthogonalEdgeStyle;shape=connector;rounded=0;jumpStyle=none;jumpSize=20;orthogonalLoop=1;jettySize=auto;html=1;labelBackgroundColor=default;strokeColor=default;align=center;verticalAlign=middle;fontFamily=Helvetica;fontSize=12;fontColor=default;endArrow=classic;" parent="1" source="fdBVsnbzCqG6GmwkJjC0-264" target="fdBVsnbzCqG6GmwkJjC0-145" edge="1">
          <mxGeometry relative="1" as="geometry" />
        </mxCell>
        <mxCell id="fdBVsnbzCqG6GmwkJjC0-212" style="edgeStyle=orthogonalEdgeStyle;shape=connector;rounded=0;jumpStyle=none;jumpSize=20;orthogonalLoop=1;jettySize=auto;html=1;entryX=0.5;entryY=0;entryDx=0;entryDy=0;labelBackgroundColor=default;strokeColor=default;align=center;verticalAlign=middle;fontFamily=Helvetica;fontSize=12;fontColor=default;endArrow=classic;" parent="1" source="fdBVsnbzCqG6GmwkJjC0-264" target="fdBVsnbzCqG6GmwkJjC0-144" edge="1">
          <mxGeometry relative="1" as="geometry" />
        </mxCell>
        <mxCell id="fdBVsnbzCqG6GmwkJjC0-136" value="Setup password&lt;br&gt;page" style="whiteSpace=wrap;html=1;rounded=1;shape=document;boundedLbl=1;fillColor=#ffe6cc;strokeColor=#d79b00;" parent="1" vertex="1">
          <mxGeometry x="480" y="720" width="120" height="80" as="geometry" />
        </mxCell>
        <mxCell id="fdBVsnbzCqG6GmwkJjC0-191" style="edgeStyle=orthogonalEdgeStyle;shape=connector;rounded=0;jumpStyle=none;jumpSize=20;orthogonalLoop=1;jettySize=auto;html=1;entryX=0.5;entryY=0;entryDx=0;entryDy=0;labelBackgroundColor=default;strokeColor=default;align=center;verticalAlign=middle;fontFamily=Helvetica;fontSize=12;fontColor=default;endArrow=classic;" parent="1" source="fdBVsnbzCqG6GmwkJjC0-266" target="fdBVsnbzCqG6GmwkJjC0-151" edge="1">
          <mxGeometry relative="1" as="geometry" />
        </mxCell>
        <mxCell id="fdBVsnbzCqG6GmwkJjC0-211" style="edgeStyle=orthogonalEdgeStyle;shape=connector;rounded=0;jumpStyle=none;jumpSize=20;orthogonalLoop=1;jettySize=auto;html=1;entryX=0.5;entryY=0;entryDx=0;entryDy=0;labelBackgroundColor=default;strokeColor=default;align=center;verticalAlign=middle;fontFamily=Helvetica;fontSize=12;fontColor=default;endArrow=classic;" parent="1" source="fdBVsnbzCqG6GmwkJjC0-266" target="fdBVsnbzCqG6GmwkJjC0-162" edge="1">
          <mxGeometry relative="1" as="geometry" />
        </mxCell>
        <mxCell id="fdBVsnbzCqG6GmwkJjC0-137" value="Check inbox&lt;br&gt;(to login)&lt;br&gt;page" style="whiteSpace=wrap;html=1;rounded=1;shape=document;boundedLbl=1;fillColor=#ffe6cc;strokeColor=#d79b00;" parent="1" vertex="1">
          <mxGeometry x="800" y="1040" width="120" height="80" as="geometry" />
        </mxCell>
        <mxCell id="fdBVsnbzCqG6GmwkJjC0-198" style="edgeStyle=orthogonalEdgeStyle;shape=connector;rounded=0;jumpStyle=none;jumpSize=20;orthogonalLoop=1;jettySize=auto;html=1;exitX=1;exitY=0.5;exitDx=0;exitDy=0;entryX=0;entryY=0.5;entryDx=0;entryDy=0;labelBackgroundColor=default;strokeColor=default;align=center;verticalAlign=middle;fontFamily=Helvetica;fontSize=12;fontColor=default;endArrow=classic;" parent="1" source="fdBVsnbzCqG6GmwkJjC0-140" target="fdBVsnbzCqG6GmwkJjC0-180" edge="1">
          <mxGeometry relative="1" as="geometry" />
        </mxCell>
        <mxCell id="fdBVsnbzCqG6GmwkJjC0-199" value="Yes" style="edgeLabel;html=1;align=center;verticalAlign=middle;resizable=0;points=[];fontSize=12;fontFamily=Helvetica;fontColor=default;" parent="fdBVsnbzCqG6GmwkJjC0-198" vertex="1" connectable="0">
          <mxGeometry x="-0.0083" relative="1" as="geometry">
            <mxPoint x="-99" as="offset" />
          </mxGeometry>
        </mxCell>
        <mxCell id="fdBVsnbzCqG6GmwkJjC0-245" style="edgeStyle=orthogonalEdgeStyle;shape=connector;rounded=0;jumpStyle=none;jumpSize=20;orthogonalLoop=1;jettySize=auto;html=1;exitX=0.5;exitY=1;exitDx=0;exitDy=0;entryX=0.5;entryY=0;entryDx=0;entryDy=0;labelBackgroundColor=default;strokeColor=default;align=center;verticalAlign=middle;fontFamily=Helvetica;fontSize=12;fontColor=default;endArrow=classic;" parent="1" source="fdBVsnbzCqG6GmwkJjC0-140" target="fdBVsnbzCqG6GmwkJjC0-137" edge="1">
          <mxGeometry relative="1" as="geometry" />
        </mxCell>
        <mxCell id="fdBVsnbzCqG6GmwkJjC0-247" value="No" style="edgeLabel;html=1;align=center;verticalAlign=middle;resizable=0;points=[];fontSize=12;fontFamily=Helvetica;fontColor=default;" parent="fdBVsnbzCqG6GmwkJjC0-245" vertex="1" connectable="0">
          <mxGeometry x="-0.9042" relative="1" as="geometry">
            <mxPoint y="4" as="offset" />
          </mxGeometry>
        </mxCell>
        <mxCell id="fdBVsnbzCqG6GmwkJjC0-140" value="Password &lt;br&gt;is setup?" style="rhombus;whiteSpace=wrap;html=1;rounded=0;" parent="1" vertex="1">
          <mxGeometry x="800" y="240" width="120" height="80" as="geometry" />
        </mxCell>
        <mxCell id="fdBVsnbzCqG6GmwkJjC0-183" style="edgeStyle=orthogonalEdgeStyle;shape=connector;rounded=0;jumpStyle=none;jumpSize=20;orthogonalLoop=1;jettySize=auto;html=1;exitX=0.5;exitY=1;exitDx=0;exitDy=0;entryX=0;entryY=0.75;entryDx=0;entryDy=0;labelBackgroundColor=default;strokeColor=default;align=center;verticalAlign=middle;fontFamily=Helvetica;fontSize=12;fontColor=default;endArrow=classic;" parent="1" source="fdBVsnbzCqG6GmwkJjC0-144" target="fdBVsnbzCqG6GmwkJjC0-149" edge="1">
          <mxGeometry relative="1" as="geometry" />
        </mxCell>
        <mxCell id="fdBVsnbzCqG6GmwkJjC0-144" value="Enter password twice and continue" style="rounded=0;whiteSpace=wrap;html=1;spacing=6;" parent="1" vertex="1">
          <mxGeometry x="320" y="880" width="120" height="80" as="geometry" />
        </mxCell>
        <mxCell id="fdBVsnbzCqG6GmwkJjC0-254" style="edgeStyle=orthogonalEdgeStyle;shape=connector;rounded=0;jumpStyle=none;jumpSize=20;orthogonalLoop=1;jettySize=auto;html=1;exitX=0.5;exitY=1;exitDx=0;exitDy=0;labelBackgroundColor=default;strokeColor=default;align=center;verticalAlign=middle;fontFamily=Helvetica;fontSize=12;fontColor=default;endArrow=none;endFill=0;" parent="1" source="fdBVsnbzCqG6GmwkJjC0-145" target="fdBVsnbzCqG6GmwkJjC0-251" edge="1">
          <mxGeometry relative="1" as="geometry">
            <mxPoint x="650.0000000000002" y="1030.0000000000002" as="targetPoint" />
            <Array as="points">
              <mxPoint x="540" y="1000" />
            </Array>
          </mxGeometry>
        </mxCell>
        <mxCell id="fdBVsnbzCqG6GmwkJjC0-145" value="Click&lt;br&gt;&quot;Use magic link only&quot;" style="rounded=0;whiteSpace=wrap;html=1;spacing=6;" parent="1" vertex="1">
          <mxGeometry x="480" y="880" width="120" height="80" as="geometry" />
        </mxCell>
        <mxCell id="fdBVsnbzCqG6GmwkJjC0-149" value="Dashboard&lt;br&gt;page" style="whiteSpace=wrap;html=1;rounded=1;shape=document;boundedLbl=1;fillColor=#ffe6cc;strokeColor=#d79b00;" parent="1" vertex="1">
          <mxGeometry x="1500" y="1360" width="120" height="80" as="geometry" />
        </mxCell>
        <mxCell id="fdBVsnbzCqG6GmwkJjC0-151" value="Click&amp;nbsp;&lt;br style=&quot;border-color: var(--border-color);&quot;&gt;&quot;Send a new email&quot;" style="rounded=0;whiteSpace=wrap;html=1;spacing=6;" parent="1" vertex="1">
          <mxGeometry x="640" y="1240" width="120" height="80" as="geometry" />
        </mxCell>
        <mxCell id="fdBVsnbzCqG6GmwkJjC0-268" style="edgeStyle=orthogonalEdgeStyle;shape=connector;rounded=0;jumpStyle=arc;jumpSize=20;orthogonalLoop=1;jettySize=auto;html=1;exitX=0.5;exitY=1;exitDx=0;exitDy=0;labelBackgroundColor=default;strokeColor=default;align=center;verticalAlign=middle;fontFamily=Helvetica;fontSize=12;fontColor=default;endArrow=none;endFill=0;" parent="1" source="fdBVsnbzCqG6GmwkJjC0-153" target="fdBVsnbzCqG6GmwkJjC0-157" edge="1">
          <mxGeometry relative="1" as="geometry" />
        </mxCell>
        <mxCell id="fdBVsnbzCqG6GmwkJjC0-153" value="Click&lt;br&gt;&quot;Back to sign in&quot;" style="rounded=0;whiteSpace=wrap;html=1;spacing=6;" parent="1" vertex="1">
          <mxGeometry x="480" y="1240" width="120" height="80" as="geometry" />
        </mxCell>
        <mxCell id="fdBVsnbzCqG6GmwkJjC0-257" style="edgeStyle=orthogonalEdgeStyle;shape=connector;rounded=0;jumpStyle=none;jumpSize=20;orthogonalLoop=1;jettySize=auto;html=1;labelBackgroundColor=default;strokeColor=default;align=center;verticalAlign=middle;fontFamily=Helvetica;fontSize=12;fontColor=default;endArrow=classic;" parent="1" source="fdBVsnbzCqG6GmwkJjC0-157" target="fdBVsnbzCqG6GmwkJjC0-5" edge="1">
          <mxGeometry relative="1" as="geometry" />
        </mxCell>
        <mxCell id="fdBVsnbzCqG6GmwkJjC0-157" value="" style="shape=waypoint;sketch=0;fillStyle=solid;size=6;pointerEvents=1;points=[];fillColor=none;resizable=0;rotatable=0;perimeter=centerPerimeter;snapToPoint=1;rounded=0;strokeColor=default;align=center;verticalAlign=middle;spacing=6;fontFamily=Helvetica;fontSize=12;fontColor=default;html=1;" parent="1" vertex="1">
          <mxGeometry x="130" y="650" width="20" height="20" as="geometry" />
        </mxCell>
        <mxCell id="fdBVsnbzCqG6GmwkJjC0-197" style="edgeStyle=orthogonalEdgeStyle;shape=connector;rounded=0;jumpStyle=none;jumpSize=20;orthogonalLoop=1;jettySize=auto;html=1;entryX=0;entryY=0.5;entryDx=0;entryDy=0;labelBackgroundColor=default;strokeColor=default;align=center;verticalAlign=middle;fontFamily=Helvetica;fontSize=12;fontColor=default;endArrow=classic;exitX=0.5;exitY=1;exitDx=0;exitDy=0;" parent="1" source="fdBVsnbzCqG6GmwkJjC0-162" target="fdBVsnbzCqG6GmwkJjC0-149" edge="1">
          <mxGeometry relative="1" as="geometry" />
        </mxCell>
        <mxCell id="fdBVsnbzCqG6GmwkJjC0-162" value="Open email client and click the link&amp;nbsp;" style="rounded=0;whiteSpace=wrap;html=1;spacing=6;" parent="1" vertex="1">
          <mxGeometry x="800" y="1240" width="120" height="80" as="geometry" />
        </mxCell>
        <mxCell id="fdBVsnbzCqG6GmwkJjC0-196" value="Yes" style="edgeStyle=orthogonalEdgeStyle;shape=connector;rounded=0;jumpStyle=none;jumpSize=20;orthogonalLoop=1;jettySize=auto;html=1;labelBackgroundColor=default;strokeColor=default;align=center;verticalAlign=middle;fontFamily=Helvetica;fontSize=12;fontColor=default;endArrow=classic;exitX=0.5;exitY=1;exitDx=0;exitDy=0;entryX=0.5;entryY=0;entryDx=0;entryDy=0;" parent="1" source="fdBVsnbzCqG6GmwkJjC0-175" target="fdBVsnbzCqG6GmwkJjC0-204" edge="1">
          <mxGeometry x="-0.0104" relative="1" as="geometry">
            <mxPoint x="1020" y="1340" as="targetPoint" />
            <mxPoint as="offset" />
          </mxGeometry>
        </mxCell>
        <mxCell id="fdBVsnbzCqG6GmwkJjC0-175" value="Existing &lt;br&gt;e-mail &amp;amp; password &lt;br&gt;is setup?" style="rhombus;whiteSpace=wrap;html=1;rounded=0;" parent="1" vertex="1">
          <mxGeometry x="960" y="1120" width="120" height="80" as="geometry" />
        </mxCell>
        <mxCell id="fdBVsnbzCqG6GmwkJjC0-238" style="edgeStyle=orthogonalEdgeStyle;shape=connector;rounded=0;jumpStyle=none;jumpSize=20;orthogonalLoop=1;jettySize=auto;html=1;exitDx=0;exitDy=0;entryX=0;entryY=0.5;entryDx=0;entryDy=0;labelBackgroundColor=default;strokeColor=default;align=center;verticalAlign=middle;fontFamily=Helvetica;fontSize=12;fontColor=default;endArrow=classic;" parent="1" source="fdBVsnbzCqG6GmwkJjC0-276" target="fdBVsnbzCqG6GmwkJjC0-203" edge="1">
          <mxGeometry relative="1" as="geometry" />
        </mxCell>
        <mxCell id="fdBVsnbzCqG6GmwkJjC0-180" value="Enter password &lt;br&gt;page" style="whiteSpace=wrap;html=1;rounded=1;shape=document;boundedLbl=1;fillColor=#ffe6cc;strokeColor=#d79b00;" parent="1" vertex="1">
          <mxGeometry x="1200" y="240" width="120" height="80" as="geometry" />
        </mxCell>
        <mxCell id="fdBVsnbzCqG6GmwkJjC0-223" style="edgeStyle=orthogonalEdgeStyle;shape=connector;rounded=0;jumpStyle=none;jumpSize=20;orthogonalLoop=1;jettySize=auto;html=1;exitX=1;exitY=0.5;exitDx=0;exitDy=0;entryX=0.5;entryY=0;entryDx=0;entryDy=0;labelBackgroundColor=default;strokeColor=default;align=center;verticalAlign=middle;fontFamily=Helvetica;fontSize=12;fontColor=default;endArrow=classic;" parent="1" source="fdBVsnbzCqG6GmwkJjC0-200" target="fdBVsnbzCqG6GmwkJjC0-149" edge="1">
          <mxGeometry relative="1" as="geometry" />
        </mxCell>
        <mxCell id="fdBVsnbzCqG6GmwkJjC0-200" value="Enter password and continue" style="rounded=0;whiteSpace=wrap;html=1;spacing=6;" parent="1" vertex="1">
          <mxGeometry x="1400" y="480" width="120" height="80" as="geometry" />
        </mxCell>
        <mxCell id="fdBVsnbzCqG6GmwkJjC0-290" style="edgeStyle=orthogonalEdgeStyle;shape=connector;rounded=0;jumpStyle=none;jumpSize=20;orthogonalLoop=1;jettySize=auto;html=1;exitX=1;exitY=0.5;exitDx=0;exitDy=0;entryX=0.5;entryY=0;entryDx=0;entryDy=0;labelBackgroundColor=default;strokeColor=default;align=center;verticalAlign=middle;fontFamily=Helvetica;fontSize=12;fontColor=default;endArrow=classic;" parent="1" source="fdBVsnbzCqG6GmwkJjC0-201" target="fdBVsnbzCqG6GmwkJjC0-289" edge="1">
          <mxGeometry relative="1" as="geometry" />
        </mxCell>
        <mxCell id="fdBVsnbzCqG6GmwkJjC0-201" value="Click&lt;br&gt;&quot;Forgot password&quot;" style="rounded=0;whiteSpace=wrap;html=1;spacing=6;" parent="1" vertex="1">
          <mxGeometry x="1400" y="360" width="120" height="80" as="geometry" />
        </mxCell>
        <mxCell id="fdBVsnbzCqG6GmwkJjC0-202" value="Click&lt;br&gt;&quot;Sign in with magic link&quot;" style="rounded=0;whiteSpace=wrap;html=1;spacing=6;" parent="1" vertex="1">
          <mxGeometry x="1400" y="600" width="120" height="80" as="geometry" />
        </mxCell>
        <mxCell id="fdBVsnbzCqG6GmwkJjC0-322" style="edgeStyle=orthogonalEdgeStyle;shape=connector;rounded=0;jumpStyle=none;jumpSize=20;orthogonalLoop=1;jettySize=auto;html=1;labelBackgroundColor=default;strokeColor=default;align=center;verticalAlign=middle;fontFamily=Helvetica;fontSize=12;fontColor=default;endArrow=none;endFill=0;" parent="1" source="fdBVsnbzCqG6GmwkJjC0-203" target="fdBVsnbzCqG6GmwkJjC0-320" edge="1">
          <mxGeometry relative="1" as="geometry" />
        </mxCell>
        <mxCell id="fdBVsnbzCqG6GmwkJjC0-203" value="Click&lt;br&gt;&quot;Go back a step&quot;" style="rounded=0;whiteSpace=wrap;html=1;spacing=6;" parent="1" vertex="1">
          <mxGeometry x="1400" y="240" width="120" height="80" as="geometry" />
        </mxCell>
        <mxCell id="fdBVsnbzCqG6GmwkJjC0-219" style="edgeStyle=orthogonalEdgeStyle;shape=connector;rounded=0;jumpStyle=none;jumpSize=20;orthogonalLoop=1;jettySize=auto;html=1;exitX=0.5;exitY=1;exitDx=0;exitDy=0;labelBackgroundColor=default;strokeColor=default;align=center;verticalAlign=middle;fontFamily=Helvetica;fontSize=12;fontColor=default;endArrow=classic;entryX=0;entryY=0.75;entryDx=0;entryDy=0;" parent="1" source="fdBVsnbzCqG6GmwkJjC0-204" target="fdBVsnbzCqG6GmwkJjC0-180" edge="1">
          <mxGeometry relative="1" as="geometry" />
        </mxCell>
        <mxCell id="fdBVsnbzCqG6GmwkJjC0-204" value="Click&amp;nbsp;&lt;br&gt;&quot;Sign in with password&quot;" style="rounded=0;whiteSpace=wrap;html=1;spacing=6;" parent="1" vertex="1">
          <mxGeometry x="960" y="1240" width="120" height="80" as="geometry" />
        </mxCell>
        <mxCell id="fdBVsnbzCqG6GmwkJjC0-240" style="edgeStyle=orthogonalEdgeStyle;shape=connector;rounded=0;jumpStyle=arc;jumpSize=20;orthogonalLoop=1;jettySize=auto;html=1;exitDx=0;exitDy=0;labelBackgroundColor=default;strokeColor=default;align=center;verticalAlign=middle;fontFamily=Helvetica;fontSize=12;fontColor=default;endArrow=none;endFill=0;" parent="1" edge="1">
          <mxGeometry relative="1" as="geometry">
            <mxPoint x="860" y="600" as="sourcePoint" />
            <mxPoint x="860" y="600" as="targetPoint" />
            <Array as="points" />
          </mxGeometry>
        </mxCell>
        <mxCell id="fdBVsnbzCqG6GmwkJjC0-255" style="edgeStyle=orthogonalEdgeStyle;shape=connector;rounded=0;jumpStyle=none;jumpSize=20;orthogonalLoop=1;jettySize=auto;html=1;entryX=0.25;entryY=0;entryDx=0;entryDy=0;labelBackgroundColor=default;strokeColor=default;align=center;verticalAlign=middle;fontFamily=Helvetica;fontSize=12;fontColor=default;endArrow=classic;" parent="1" source="fdBVsnbzCqG6GmwkJjC0-251" target="fdBVsnbzCqG6GmwkJjC0-137" edge="1">
          <mxGeometry relative="1" as="geometry" />
        </mxCell>
        <mxCell id="fdBVsnbzCqG6GmwkJjC0-251" value="" style="shape=waypoint;sketch=0;fillStyle=solid;size=6;pointerEvents=1;points=[];fillColor=none;resizable=0;rotatable=0;perimeter=centerPerimeter;snapToPoint=1;rounded=0;strokeColor=default;align=center;verticalAlign=middle;spacing=6;fontFamily=Helvetica;fontSize=12;fontColor=default;html=1;" parent="1" vertex="1">
          <mxGeometry x="690" y="990" width="20" height="20" as="geometry" />
        </mxCell>
        <mxCell id="fdBVsnbzCqG6GmwkJjC0-263" value="" style="edgeStyle=orthogonalEdgeStyle;shape=connector;rounded=0;jumpStyle=arc;jumpSize=20;orthogonalLoop=1;jettySize=auto;html=1;labelBackgroundColor=default;strokeColor=default;align=center;verticalAlign=middle;fontFamily=Helvetica;fontSize=12;fontColor=default;endArrow=none;endFill=0;" parent="1" source="fdBVsnbzCqG6GmwkJjC0-10" target="fdBVsnbzCqG6GmwkJjC0-262" edge="1">
          <mxGeometry relative="1" as="geometry">
            <mxPoint x="540" y="480" as="sourcePoint" />
            <mxPoint x="540" y="560" as="targetPoint" />
          </mxGeometry>
        </mxCell>
        <mxCell id="fdBVsnbzCqG6GmwkJjC0-262" value="" style="shape=waypoint;sketch=0;fillStyle=solid;size=6;pointerEvents=1;points=[];fillColor=none;resizable=0;rotatable=0;perimeter=centerPerimeter;snapToPoint=1;rounded=0;strokeColor=default;align=center;verticalAlign=middle;spacing=6;fontFamily=Helvetica;fontSize=12;fontColor=default;html=1;" parent="1" vertex="1">
          <mxGeometry x="530" y="510" width="20" height="20" as="geometry" />
        </mxCell>
        <mxCell id="fdBVsnbzCqG6GmwkJjC0-265" value="" style="edgeStyle=orthogonalEdgeStyle;shape=connector;rounded=0;jumpStyle=none;jumpSize=20;orthogonalLoop=1;jettySize=auto;html=1;labelBackgroundColor=default;strokeColor=default;align=center;verticalAlign=middle;fontFamily=Helvetica;fontSize=12;fontColor=default;endArrow=none;endFill=0;" parent="1" source="fdBVsnbzCqG6GmwkJjC0-136" target="fdBVsnbzCqG6GmwkJjC0-264" edge="1">
          <mxGeometry relative="1" as="geometry">
            <mxPoint x="540" y="800" as="sourcePoint" />
            <mxPoint x="540" y="880" as="targetPoint" />
          </mxGeometry>
        </mxCell>
        <mxCell id="fdBVsnbzCqG6GmwkJjC0-264" value="" style="shape=waypoint;sketch=0;fillStyle=solid;size=6;pointerEvents=1;points=[];fillColor=none;resizable=0;rotatable=0;perimeter=centerPerimeter;snapToPoint=1;rounded=0;strokeColor=default;align=center;verticalAlign=middle;spacing=6;fontFamily=Helvetica;fontSize=12;fontColor=default;html=1;" parent="1" vertex="1">
          <mxGeometry x="530" y="830" width="20" height="20" as="geometry" />
        </mxCell>
        <mxCell id="fdBVsnbzCqG6GmwkJjC0-267" value="" style="edgeStyle=orthogonalEdgeStyle;shape=connector;rounded=0;jumpStyle=none;jumpSize=20;orthogonalLoop=1;jettySize=auto;html=1;entryDx=0;entryDy=0;labelBackgroundColor=default;strokeColor=default;align=center;verticalAlign=middle;fontFamily=Helvetica;fontSize=12;fontColor=default;endArrow=none;endFill=0;" parent="1" source="fdBVsnbzCqG6GmwkJjC0-137" target="fdBVsnbzCqG6GmwkJjC0-266" edge="1">
          <mxGeometry relative="1" as="geometry">
            <mxPoint x="860" y="1160" as="sourcePoint" />
            <mxPoint x="860" y="1400" as="targetPoint" />
          </mxGeometry>
        </mxCell>
        <mxCell id="fdBVsnbzCqG6GmwkJjC0-270" style="edgeStyle=orthogonalEdgeStyle;shape=connector;rounded=0;jumpStyle=none;jumpSize=20;orthogonalLoop=1;jettySize=auto;html=1;entryX=0.5;entryY=0;entryDx=0;entryDy=0;labelBackgroundColor=default;strokeColor=default;align=center;verticalAlign=middle;fontFamily=Helvetica;fontSize=12;fontColor=default;endArrow=classic;" parent="1" source="fdBVsnbzCqG6GmwkJjC0-266" target="fdBVsnbzCqG6GmwkJjC0-153" edge="1">
          <mxGeometry relative="1" as="geometry" />
        </mxCell>
        <mxCell id="fdBVsnbzCqG6GmwkJjC0-271" style="edgeStyle=orthogonalEdgeStyle;shape=connector;rounded=0;jumpStyle=none;jumpSize=20;orthogonalLoop=1;jettySize=auto;html=1;entryX=0;entryY=0.5;entryDx=0;entryDy=0;labelBackgroundColor=default;strokeColor=default;align=center;verticalAlign=middle;fontFamily=Helvetica;fontSize=12;fontColor=default;endArrow=classic;" parent="1" source="fdBVsnbzCqG6GmwkJjC0-266" target="fdBVsnbzCqG6GmwkJjC0-175" edge="1">
          <mxGeometry relative="1" as="geometry" />
        </mxCell>
        <mxCell id="fdBVsnbzCqG6GmwkJjC0-266" value="" style="shape=waypoint;sketch=0;fillStyle=solid;size=6;pointerEvents=1;points=[];fillColor=none;resizable=0;rotatable=0;perimeter=centerPerimeter;snapToPoint=1;rounded=0;strokeColor=default;align=center;verticalAlign=middle;spacing=6;fontFamily=Helvetica;fontSize=12;fontColor=default;html=1;" parent="1" vertex="1">
          <mxGeometry x="850" y="1150" width="20" height="20" as="geometry" />
        </mxCell>
        <mxCell id="fdBVsnbzCqG6GmwkJjC0-249" style="edgeStyle=orthogonalEdgeStyle;shape=connector;rounded=0;jumpStyle=arc;jumpSize=20;orthogonalLoop=1;jettySize=auto;html=1;exitX=0.5;exitY=1;exitDx=0;exitDy=0;entryX=0.75;entryY=0;entryDx=0;entryDy=0;labelBackgroundColor=default;strokeColor=default;align=center;verticalAlign=middle;fontFamily=Helvetica;fontSize=12;fontColor=default;endArrow=classic;" parent="1" source="fdBVsnbzCqG6GmwkJjC0-202" target="fdBVsnbzCqG6GmwkJjC0-137" edge="1">
          <mxGeometry relative="1" as="geometry">
            <Array as="points">
              <mxPoint x="1460" y="1000" />
              <mxPoint x="890" y="1000" />
            </Array>
          </mxGeometry>
        </mxCell>
        <mxCell id="fdBVsnbzCqG6GmwkJjC0-277" value="" style="edgeStyle=orthogonalEdgeStyle;shape=connector;rounded=0;jumpStyle=none;jumpSize=20;orthogonalLoop=1;jettySize=auto;html=1;exitX=1;exitY=0.5;exitDx=0;exitDy=0;entryDx=0;entryDy=0;labelBackgroundColor=default;strokeColor=default;align=center;verticalAlign=middle;fontFamily=Helvetica;fontSize=12;fontColor=default;endArrow=none;endFill=0;" parent="1" source="fdBVsnbzCqG6GmwkJjC0-180" target="fdBVsnbzCqG6GmwkJjC0-276" edge="1">
          <mxGeometry relative="1" as="geometry">
            <mxPoint x="1400" y="280" as="sourcePoint" />
            <mxPoint x="1480" y="280" as="targetPoint" />
          </mxGeometry>
        </mxCell>
        <mxCell id="fdBVsnbzCqG6GmwkJjC0-280" style="edgeStyle=orthogonalEdgeStyle;shape=connector;rounded=0;jumpStyle=none;jumpSize=20;orthogonalLoop=1;jettySize=auto;html=1;labelBackgroundColor=default;strokeColor=default;align=center;verticalAlign=middle;fontFamily=Helvetica;fontSize=12;fontColor=default;endArrow=classic;entryX=0;entryY=0.5;entryDx=0;entryDy=0;" parent="1" source="fdBVsnbzCqG6GmwkJjC0-276" target="fdBVsnbzCqG6GmwkJjC0-201" edge="1">
          <mxGeometry relative="1" as="geometry">
            <mxPoint x="1360" y="420" as="targetPoint" />
            <Array as="points">
              <mxPoint x="1360" y="400" />
            </Array>
          </mxGeometry>
        </mxCell>
        <mxCell id="fdBVsnbzCqG6GmwkJjC0-281" style="edgeStyle=orthogonalEdgeStyle;shape=connector;rounded=0;jumpStyle=none;jumpSize=20;orthogonalLoop=1;jettySize=auto;html=1;entryX=0;entryY=0.5;entryDx=0;entryDy=0;labelBackgroundColor=default;strokeColor=default;align=center;verticalAlign=middle;fontFamily=Helvetica;fontSize=12;fontColor=default;endArrow=classic;" parent="1" source="fdBVsnbzCqG6GmwkJjC0-276" target="fdBVsnbzCqG6GmwkJjC0-200" edge="1">
          <mxGeometry relative="1" as="geometry">
            <Array as="points">
              <mxPoint x="1360" y="520" />
            </Array>
          </mxGeometry>
        </mxCell>
        <mxCell id="fdBVsnbzCqG6GmwkJjC0-282" style="edgeStyle=orthogonalEdgeStyle;shape=connector;rounded=0;jumpStyle=none;jumpSize=20;orthogonalLoop=1;jettySize=auto;html=1;entryX=0;entryY=0.5;entryDx=0;entryDy=0;labelBackgroundColor=default;strokeColor=default;align=center;verticalAlign=middle;fontFamily=Helvetica;fontSize=12;fontColor=default;endArrow=classic;" parent="1" source="fdBVsnbzCqG6GmwkJjC0-276" target="fdBVsnbzCqG6GmwkJjC0-202" edge="1">
          <mxGeometry relative="1" as="geometry">
            <Array as="points">
              <mxPoint x="1360" y="640" />
            </Array>
          </mxGeometry>
        </mxCell>
        <mxCell id="fdBVsnbzCqG6GmwkJjC0-276" value="" style="shape=waypoint;sketch=0;fillStyle=solid;size=6;pointerEvents=1;points=[];fillColor=none;resizable=0;rotatable=0;perimeter=centerPerimeter;snapToPoint=1;rounded=0;strokeColor=default;align=center;verticalAlign=middle;spacing=6;fontFamily=Helvetica;fontSize=12;fontColor=default;html=1;" parent="1" vertex="1">
          <mxGeometry x="1350" y="270" width="20" height="20" as="geometry" />
        </mxCell>
        <mxCell id="fdBVsnbzCqG6GmwkJjC0-289" value="Forgot password&lt;br&gt;page" style="whiteSpace=wrap;html=1;rounded=1;shape=document;boundedLbl=1;fillColor=#ffe6cc;strokeColor=#d79b00;" parent="1" vertex="1">
          <mxGeometry x="1840" y="440" width="120" height="80" as="geometry" />
        </mxCell>
        <mxCell id="fdBVsnbzCqG6GmwkJjC0-313" style="edgeStyle=orthogonalEdgeStyle;shape=connector;rounded=0;jumpStyle=none;jumpSize=20;orthogonalLoop=1;jettySize=auto;html=1;exitX=0.5;exitY=1;exitDx=0;exitDy=0;entryX=0.5;entryY=0;entryDx=0;entryDy=0;labelBackgroundColor=default;strokeColor=default;align=center;verticalAlign=middle;fontFamily=Helvetica;fontSize=12;fontColor=default;endArrow=classic;" parent="1" source="fdBVsnbzCqG6GmwkJjC0-291" target="fdBVsnbzCqG6GmwkJjC0-312" edge="1">
          <mxGeometry relative="1" as="geometry" />
        </mxCell>
        <mxCell id="fdBVsnbzCqG6GmwkJjC0-291" value="Enter email and continue" style="rounded=0;whiteSpace=wrap;html=1;spacing=6;" parent="1" vertex="1">
          <mxGeometry x="1760" y="600" width="120" height="80" as="geometry" />
        </mxCell>
        <mxCell id="fdBVsnbzCqG6GmwkJjC0-306" style="edgeStyle=orthogonalEdgeStyle;shape=connector;rounded=0;jumpStyle=arc;jumpSize=20;orthogonalLoop=1;jettySize=auto;html=1;exitX=0.5;exitY=1;exitDx=0;exitDy=0;entryX=0;entryY=0.25;entryDx=0;entryDy=0;labelBackgroundColor=default;strokeColor=default;align=center;verticalAlign=middle;fontFamily=Helvetica;fontSize=12;fontColor=default;endArrow=classic;" parent="1" source="fdBVsnbzCqG6GmwkJjC0-294" target="fdBVsnbzCqG6GmwkJjC0-180" edge="1">
          <mxGeometry relative="1" as="geometry">
            <Array as="points">
              <mxPoint x="1980" y="720" />
              <mxPoint x="2080" y="720" />
              <mxPoint x="2080" y="200" />
              <mxPoint x="1180" y="200" />
              <mxPoint x="1180" y="260" />
            </Array>
          </mxGeometry>
        </mxCell>
        <mxCell id="fdBVsnbzCqG6GmwkJjC0-294" value="Click&lt;br&gt;&quot;Go back a step&quot;" style="rounded=0;whiteSpace=wrap;html=1;spacing=6;" parent="1" vertex="1">
          <mxGeometry x="1920" y="600" width="120" height="80" as="geometry" />
        </mxCell>
        <mxCell id="fdBVsnbzCqG6GmwkJjC0-298" style="edgeStyle=orthogonalEdgeStyle;shape=connector;rounded=0;jumpStyle=none;jumpSize=20;orthogonalLoop=1;jettySize=auto;html=1;entryX=0.5;entryY=0;entryDx=0;entryDy=0;labelBackgroundColor=default;strokeColor=default;align=center;verticalAlign=middle;fontFamily=Helvetica;fontSize=12;fontColor=default;endArrow=classic;" parent="1" source="fdBVsnbzCqG6GmwkJjC0-296" target="fdBVsnbzCqG6GmwkJjC0-291" edge="1">
          <mxGeometry relative="1" as="geometry" />
        </mxCell>
        <mxCell id="fdBVsnbzCqG6GmwkJjC0-299" style="edgeStyle=orthogonalEdgeStyle;shape=connector;rounded=0;jumpStyle=none;jumpSize=20;orthogonalLoop=1;jettySize=auto;html=1;entryX=0.5;entryY=0;entryDx=0;entryDy=0;labelBackgroundColor=default;strokeColor=default;align=center;verticalAlign=middle;fontFamily=Helvetica;fontSize=12;fontColor=default;endArrow=classic;" parent="1" source="fdBVsnbzCqG6GmwkJjC0-296" target="fdBVsnbzCqG6GmwkJjC0-294" edge="1">
          <mxGeometry relative="1" as="geometry" />
        </mxCell>
        <mxCell id="fdBVsnbzCqG6GmwkJjC0-296" value="" style="shape=waypoint;sketch=0;fillStyle=solid;size=6;pointerEvents=1;points=[];fillColor=none;resizable=0;rotatable=0;perimeter=centerPerimeter;snapToPoint=1;rounded=0;strokeColor=default;align=center;verticalAlign=middle;spacing=6;fontFamily=Helvetica;fontSize=12;fontColor=default;html=1;" parent="1" vertex="1">
          <mxGeometry x="1890" y="550" width="20" height="20" as="geometry" />
        </mxCell>
        <mxCell id="fdBVsnbzCqG6GmwkJjC0-297" style="edgeStyle=orthogonalEdgeStyle;shape=connector;rounded=0;jumpStyle=none;jumpSize=20;orthogonalLoop=1;jettySize=auto;html=1;entryX=0.679;entryY=0.732;entryDx=0;entryDy=0;entryPerimeter=0;labelBackgroundColor=default;strokeColor=default;align=center;verticalAlign=middle;fontFamily=Helvetica;fontSize=12;fontColor=default;endArrow=none;endFill=0;" parent="1" source="fdBVsnbzCqG6GmwkJjC0-289" target="fdBVsnbzCqG6GmwkJjC0-296" edge="1">
          <mxGeometry relative="1" as="geometry" />
        </mxCell>
        <mxCell id="fdBVsnbzCqG6GmwkJjC0-325" style="edgeStyle=orthogonalEdgeStyle;shape=connector;rounded=0;jumpStyle=none;jumpSize=20;orthogonalLoop=1;jettySize=auto;html=1;exitX=0.5;exitY=1;exitDx=0;exitDy=0;entryX=0.5;entryY=0;entryDx=0;entryDy=0;labelBackgroundColor=default;strokeColor=default;align=center;verticalAlign=middle;fontFamily=Helvetica;fontSize=12;fontColor=default;endArrow=classic;" parent="1" source="fdBVsnbzCqG6GmwkJjC0-309" target="fdBVsnbzCqG6GmwkJjC0-324" edge="1">
          <mxGeometry relative="1" as="geometry" />
        </mxCell>
        <mxCell id="fdBVsnbzCqG6GmwkJjC0-309" value="Open email client and click the link&amp;nbsp;" style="rounded=0;whiteSpace=wrap;html=1;spacing=6;" parent="1" vertex="1">
          <mxGeometry x="1760" y="920" width="120" height="80" as="geometry" />
        </mxCell>
        <mxCell id="fdBVsnbzCqG6GmwkJjC0-317" style="edgeStyle=orthogonalEdgeStyle;shape=connector;rounded=0;jumpStyle=none;jumpSize=20;orthogonalLoop=1;jettySize=auto;html=1;labelBackgroundColor=default;strokeColor=default;align=center;verticalAlign=middle;fontFamily=Helvetica;fontSize=12;fontColor=default;endArrow=none;endFill=0;" parent="1" source="fdBVsnbzCqG6GmwkJjC0-312" target="fdBVsnbzCqG6GmwkJjC0-316" edge="1">
          <mxGeometry relative="1" as="geometry" />
        </mxCell>
        <mxCell id="fdBVsnbzCqG6GmwkJjC0-312" value="Check inbox&lt;br&gt;(to reset password)&lt;br&gt;page" style="whiteSpace=wrap;html=1;rounded=1;shape=document;boundedLbl=1;fillColor=#ffe6cc;strokeColor=#d79b00;" parent="1" vertex="1">
          <mxGeometry x="1760" y="760" width="120" height="80" as="geometry" />
        </mxCell>
        <mxCell id="fdBVsnbzCqG6GmwkJjC0-314" value="Click&lt;br&gt;&quot;Back to sign in&quot;" style="rounded=0;whiteSpace=wrap;html=1;spacing=6;" parent="1" vertex="1">
          <mxGeometry x="1920" y="920" width="120" height="80" as="geometry" />
        </mxCell>
        <mxCell id="fdBVsnbzCqG6GmwkJjC0-318" style="edgeStyle=orthogonalEdgeStyle;shape=connector;rounded=0;jumpStyle=none;jumpSize=20;orthogonalLoop=1;jettySize=auto;html=1;entryX=0.5;entryY=0;entryDx=0;entryDy=0;labelBackgroundColor=default;strokeColor=default;align=center;verticalAlign=middle;fontFamily=Helvetica;fontSize=12;fontColor=default;endArrow=classic;" parent="1" source="fdBVsnbzCqG6GmwkJjC0-316" target="fdBVsnbzCqG6GmwkJjC0-309" edge="1">
          <mxGeometry relative="1" as="geometry" />
        </mxCell>
        <mxCell id="fdBVsnbzCqG6GmwkJjC0-319" style="edgeStyle=orthogonalEdgeStyle;shape=connector;rounded=0;jumpStyle=none;jumpSize=20;orthogonalLoop=1;jettySize=auto;html=1;entryX=0.5;entryY=0;entryDx=0;entryDy=0;labelBackgroundColor=default;strokeColor=default;align=center;verticalAlign=middle;fontFamily=Helvetica;fontSize=12;fontColor=default;endArrow=classic;" parent="1" source="fdBVsnbzCqG6GmwkJjC0-316" target="fdBVsnbzCqG6GmwkJjC0-314" edge="1">
          <mxGeometry relative="1" as="geometry" />
        </mxCell>
        <mxCell id="fdBVsnbzCqG6GmwkJjC0-316" value="" style="shape=waypoint;sketch=0;fillStyle=solid;size=6;pointerEvents=1;points=[];fillColor=none;resizable=0;rotatable=0;perimeter=centerPerimeter;snapToPoint=1;rounded=0;strokeColor=default;align=center;verticalAlign=middle;spacing=6;fontFamily=Helvetica;fontSize=12;fontColor=default;html=1;" parent="1" vertex="1">
          <mxGeometry x="1810" y="870" width="20" height="20" as="geometry" />
        </mxCell>
        <mxCell id="fdBVsnbzCqG6GmwkJjC0-321" style="edgeStyle=orthogonalEdgeStyle;shape=connector;rounded=0;jumpStyle=none;jumpSize=20;orthogonalLoop=1;jettySize=auto;html=1;entryX=0.5;entryY=0;entryDx=0;entryDy=0;labelBackgroundColor=default;strokeColor=default;align=center;verticalAlign=middle;fontFamily=Helvetica;fontSize=12;fontColor=default;endArrow=classic;" parent="1" source="fdBVsnbzCqG6GmwkJjC0-320" target="fdBVsnbzCqG6GmwkJjC0-5" edge="1">
          <mxGeometry relative="1" as="geometry" />
        </mxCell>
        <mxCell id="fdBVsnbzCqG6GmwkJjC0-320" value="" style="shape=waypoint;sketch=0;fillStyle=solid;size=6;pointerEvents=1;points=[];fillColor=none;resizable=0;rotatable=0;perimeter=centerPerimeter;snapToPoint=1;rounded=0;strokeColor=default;align=center;verticalAlign=middle;spacing=6;fontFamily=Helvetica;fontSize=12;fontColor=default;html=1;" parent="1" vertex="1">
          <mxGeometry x="1550" y="150" width="20" height="20" as="geometry" />
        </mxCell>
        <mxCell id="fdBVsnbzCqG6GmwkJjC0-323" style="edgeStyle=orthogonalEdgeStyle;shape=connector;rounded=0;jumpStyle=none;jumpSize=20;orthogonalLoop=1;jettySize=auto;html=1;exitX=1;exitY=0.5;exitDx=0;exitDy=0;entryX=1;entryY=0.5;entryDx=0;entryDy=0;entryPerimeter=0;labelBackgroundColor=default;strokeColor=default;align=center;verticalAlign=middle;fontFamily=Helvetica;fontSize=12;fontColor=default;endArrow=none;endFill=0;" parent="1" source="fdBVsnbzCqG6GmwkJjC0-314" target="fdBVsnbzCqG6GmwkJjC0-320" edge="1">
          <mxGeometry relative="1" as="geometry">
            <Array as="points">
              <mxPoint x="2120" y="960" />
              <mxPoint x="2120" y="160" />
            </Array>
          </mxGeometry>
        </mxCell>
        <mxCell id="fdBVsnbzCqG6GmwkJjC0-327" style="edgeStyle=orthogonalEdgeStyle;shape=connector;rounded=0;jumpStyle=none;jumpSize=20;orthogonalLoop=1;jettySize=auto;html=1;entryX=0.5;entryY=0;entryDx=0;entryDy=0;labelBackgroundColor=default;strokeColor=default;align=center;verticalAlign=middle;fontFamily=Helvetica;fontSize=12;fontColor=default;endArrow=classic;" parent="1" source="fdBVsnbzCqG6GmwkJjC0-324" target="fdBVsnbzCqG6GmwkJjC0-326" edge="1">
          <mxGeometry relative="1" as="geometry" />
        </mxCell>
        <mxCell id="fdBVsnbzCqG6GmwkJjC0-324" value="Set a password&lt;br&gt;page" style="whiteSpace=wrap;html=1;rounded=1;shape=document;boundedLbl=1;fillColor=#ffe6cc;strokeColor=#d79b00;" parent="1" vertex="1">
          <mxGeometry x="1760" y="1080" width="120" height="80" as="geometry" />
        </mxCell>
        <mxCell id="fdBVsnbzCqG6GmwkJjC0-328" style="edgeStyle=orthogonalEdgeStyle;shape=connector;rounded=0;jumpStyle=none;jumpSize=20;orthogonalLoop=1;jettySize=auto;html=1;exitX=0.5;exitY=1;exitDx=0;exitDy=0;entryX=1;entryY=0.5;entryDx=0;entryDy=0;labelBackgroundColor=default;strokeColor=default;align=center;verticalAlign=middle;fontFamily=Helvetica;fontSize=12;fontColor=default;endArrow=classic;" parent="1" source="fdBVsnbzCqG6GmwkJjC0-326" target="fdBVsnbzCqG6GmwkJjC0-149" edge="1">
          <mxGeometry relative="1" as="geometry" />
        </mxCell>
        <mxCell id="fdBVsnbzCqG6GmwkJjC0-326" value="Enter password twice and continue" style="rounded=0;whiteSpace=wrap;html=1;spacing=6;" parent="1" vertex="1">
          <mxGeometry x="1760" y="1240" width="120" height="80" as="geometry" />
        </mxCell>
      </root>
    </mxGraphModel>
  </diagram>
</mxfile>
